<svg xmlns="http://www.w3.org/2000/svg" xmlns:xlink="http://www.w3.org/1999/xlink" version="1.1" x="0px" y="0px" style="enable-background:new 0 0 1490.18 1117.09;" xml:space="preserve" viewBox="167.59 399.28 492.58 183.62"><style type="text/css">	.st0{display:none;fill:#00D379;}	.st1{display:none;}	.st2{font-family:'Helvetica';}	.st3{font-size:137.5404px;}	.st4{letter-spacing:-1.89;}</style><g id="Layer_11"></g><g id="Layer_12">	<path class="st0" d="M870.01,295.47c0,0-6.5-48.84-9.06-64.4c-0.39-2.37-0.5-3.92-3.88-9.41c-1.69-2.73-3.79-5.17-6.32-7.3   c-1.67-1.4-18.81-14.3-29.68-14.44c-7.33-0.1-20.13,4.91-25.68,11.61c2.62,5.21,6,9.5,9.14,11.58c0.12-0.09,11.45-5.92,16.54-5.92   c5.58,0,13.36,6.05,14.39,6.82c2.16,1.6,7.11,5.72,9.13,11.58c0.82,2.38,9.16,59.88,9.16,59.88L870.01,295.47z"></path>	<path class="st1" d="M858.32,238.12c-1.67,1.4-4.9,3.01-6.87,4.1c0.43,1.68,7.88,53.1,7.88,53.1h16.27l-8.39-59.23   c-0.83-3.55-2.51-5.26-2.51-5.26C863,233.56,860.85,235.99,858.32,238.12z"></path>	<text transform="matrix(1.0602 0 0 1 167.5929 538.4839)" class="st2 st3 st4">Learn</text>	<g>		<path d="M660.17,582.9h-20.33c0,0-7.7-53.04-10.51-69.88v-0.01c6.3-4,10.69-7.49,10.79-7.57c2.84-2.39,5.35-5.09,7.47-8.06    c0.82,2.05,0.99,3.39,1.26,5.04C652.03,521.85,660.17,582.9,660.17,582.9z"></path>		<path d="M622.41,472.25v0.01c-1.97,5.54-7.06,9.76-9.16,11.32l-0.25,0.19c-2.02,1.54-3.89,2.77-5.54,3.76    c-2.81-1.39-5.84-2.46-8.47-2.46c-2.62,0-5.66,1.07-8.47,2.46c-2.25,1.11-4.36,2.44-6.04,3.56c-1.79,1.2-3.07,2.2-3.49,2.5    c-2.5,1.86-8.02,6.45-10.82,12.97c-0.2,0.49-0.4,0.99-0.57,1.5c-0.15,0.41-0.47,2.2-0.94,4.95v0.01    c-2.81,16.83-10.51,69.88-10.51,69.88h-20.33c0,0,8.12-61.05,11.32-80.49c0.27-1.65,0.44-2.97,1.26-5.02    c0.61-1.54,1.61-3.49,3.31-6.3c0.1-0.14,0.19-0.29,0.27-0.44c2.11-3.41,4.74-6.46,7.9-9.12c0.74-0.62,3.9-3.04,8.29-5.91    c1.65-1.07,3.46-2.22,5.39-3.36c7.42-4.4,16.46-8.69,23.43-8.79C605.95,463.57,614.99,467.86,622.41,472.25z"></path>		<path d="M660.17,582.9h-20.33c0,0-7.7-53.04-10.51-69.88v-0.01c6.3-4,10.69-7.49,10.79-7.57c2.84-2.39,5.35-5.09,7.47-8.06    c0.82,2.05,0.99,3.39,1.26,5.04C652.03,521.85,660.17,582.9,660.17,582.9z"></path>		<path d="M550.4,484.79c-0.82-2.05-0.99-3.37-1.26-5.02c-3.2-19.43-11.32-80.49-11.32-80.49h20.33c0,0,7.7,53.04,10.51,69.88    c-6.3,4.01-10.7,7.5-10.8,7.59C555.04,479.12,552.54,481.82,550.4,484.79z"></path>		<path d="M550.4,484.79c-0.82-2.05-0.99-3.37-1.26-5.02c-3.2-19.43-11.32-80.49-11.32-80.49h20.33c0,0,7.7,53.04,10.51,69.88    c-6.3,4.01-10.7,7.5-10.8,7.59C555.04,479.12,552.54,481.82,550.4,484.79z"></path>		<path d="M660.17,399.28c0,0-8.14,61.05-11.32,80.49c-0.28,1.65-0.44,2.97-1.26,5.02c-0.61,1.54-1.61,3.49-3.31,6.3    c-0.1,0.14-0.19,0.29-0.27,0.44c-2.12,3.41-4.75,6.46-7.91,9.12c-0.74,0.62-3.89,3.04-8.27,5.91c-1.65,1.09-3.47,2.22-5.4,3.37    c-7.42,4.39-16.46,8.67-23.42,8.76c-6.97-0.09-16.01-4.37-23.43-8.77c1.99-5.54,7.06-9.76,9.17-11.32l0.24-0.19    c2.04-1.54,3.89-2.77,5.55-3.76c2.81,1.39,5.85,2.46,8.47,2.46c2.64,0,5.66-1.07,8.47-2.46c2.25-1.12,4.35-2.44,6.02-3.56    c1.79-1.2,3.07-2.2,3.49-2.5c2.51-1.86,8.04-6.45,10.84-12.97c0.2-0.49,0.4-0.99,0.57-1.5c0.15-0.41,0.48-2.2,0.94-4.95v-0.01    c2.81-16.83,10.51-69.88,10.51-69.88H660.17z"></path>	</g></g></svg>